HIERARCHY
ROOT Hips
{
   OFFSET 0.00000 0.00000 0.00000
   CHANNELS 6 Xposition Yposition Zposition Zrotation Xrotation Yrotation
   JOINT RightUpLeg
   {
      OFFSET -8.945800 -8.667070 0.101652
      CHANNELS 3 Zrotation Xrotation Yrotation
      JOINT RightLeg
      {
         OFFSET 0.000000 -44.422697 1.372700
         CHANNELS 3 Zrotation Xrotation Yrotation
         JOINT RightFoot
         {
            OFFSET 0.253549 -42.092399 -1.460590
            CHANNELS 3 Zrotation Xrotation Yrotation
            JOINT RightToes
            {
               OFFSET 0.040000 -4.415090 8.499099
               CHANNELS 3 Zrotation Xrotation Yrotation
               End Site
               {
                  OFFSET -0.080000 -0.137448 9.779790
               }
            }
         }
      }
   }
   JOINT Spine
   {
      OFFSET 0.000000 11.890501 0.000000
      CHANNELS 3 Zrotation Xrotation Yrotation
      JOINT Spine1
      {
         OFFSET 0.000000 25.657401 0.127663
         CHANNELS 3 Zrotation Xrotation Yrotation
         JOINT HEad
         {
            OFFSET 0.000000 8.734161 0.011341
            CHANNELS 3 Zrotation Xrotation Yrotation
            End Site
            {
               OFFSET -0.290000 12.774200 2.513950
            }
         }
         JOINT LeftShoulder1
         {
            OFFSET 8.990000 -0.362252 -0.220000
            CHANNELS 3 Zrotation Xrotation Yrotation
            JOINT LeftArm
            {
               OFFSET 10.282700 -0.003380 0.322123
               CHANNELS 3 Zrotation Xrotation Yrotation
               JOINT LeftForeArm
               {
                  OFFSET 32.766900 0.099144 -1.424340
                  CHANNELS 3 Zrotation Xrotation Yrotation
                  JOINT LeftHand
                  {
                     OFFSET 27.564301 0.085362 1.022160
                     CHANNELS 3 Zrotation Xrotation Yrotation
                     End Site
                     {
                        OFFSET 16.744301 -0.600000 1.502910
                     }
                  }
               }
            }
         }
         JOINT RightShoulder
         {
            OFFSET -8.990000 -0.362252 -0.220000
            CHANNELS 3 Zrotation Xrotation Yrotation
            JOINT RightArm
            {
               OFFSET -10.282700 -0.003380 0.322123
               CHANNELS 3 Zrotation Xrotation Yrotation
               JOINT RightForeArm
               {
                  OFFSET -32.897098 0.099144 -1.424340
                  CHANNELS 3 Zrotation Xrotation Yrotation
                  JOINT RightHand
                  {
                     OFFSET -27.492101 0.085362 1.022160
                     CHANNELS 3 Zrotation Xrotation Yrotation
                     End Site
                     {
                        OFFSET -16.631201 -0.600000 1.502910
                     }
                  }
               }
            }
         }
      }
   }
   JOINT LeftUpLeg
   {
      OFFSET 8.945800 -8.667070 0.101652
      CHANNELS 3 Zrotation Xrotation Yrotation
      JOINT LeftLeg
      {
         OFFSET 0.000000 -44.422697 1.372700
         CHANNELS 3 Zrotation Xrotation Yrotation
         JOINT LeftFoot
         {
            OFFSET -0.253549 -42.092399 -1.460590
            CHANNELS 3 Zrotation Xrotation Yrotation
            JOINT LeftToes
            {
               OFFSET -0.040000 -4.415090 8.499099
               CHANNELS 3 Zrotation Xrotation Yrotation
               End Site
               {
                  OFFSET 0.080000 -0.047448 9.779790
               }
            }
         }
      }
   }
}
MOTION
Frames: 6
Frame Time: 0.016667
-416.292947 91.100463 -38.545010 39.281890 -14.179786 78.272267 -20.093097 23.582123 -7.306247 4.710356 35.553081 -22.689265 -30.824166 1.869223 42.698825 6.023385 -19.668095 -35.545493 0.452087 50.442655 174.085430 1.134551 -8.483512 -166.857492 6.612195 3.002484 -0.137321 -69.175097 126.024189 76.869456 -110.947626 64.312378 -216.411921 -53.986389 65.851623 8.566001 -38.249087 -28.233845 -45.781272 8.870139 100.785151 24.959839 122.947093 124.158796 153.516466 -6.773747 163.003585 74.688952 25.416561 4.060178 46.929666 16.257778 3.805030 -126.065389 -13.846438 -31.003216 143.045075 18.590139 32.009033 -9.387160 -59.169512 -32.733231 11.046106
-415.763315 91.967276 -38.732798 39.256847 -13.856389 77.691981 -20.490851 25.110403 -6.970834 4.720028 35.995688 -21.073345 -28.745148 0.918000 42.517644 5.895481 -20.171739 -35.675215 0.800774 53.331647 172.927385 1.629350 -5.498854 -168.688952 5.729472 4.920136 -1.062257 -70.469780 123.429305 77.268865 -109.425750 64.607893 -219.602507 -62.585290 65.484049 12.863880 -41.664113 -31.991520 -51.296882 18.103758 99.028461 22.688765 122.290985 118.290052 154.570842 -5.908366 162.317219 83.034255 17.773785 3.771228 49.268398 14.731255 4.062282 -127.207260 -13.728518 -30.524037 142.366646 19.252329 31.849951 -9.465770 -59.295003 -32.755835 11.361339
-415.186380 92.779406 -38.870811 38.421412 -14.503823 77.297825 -19.273909 26.355538 -7.070757 5.610123 36.618761 -19.080092 -27.372268 1.017424 42.307168 6.002132 -20.384910 -36.019303 0.855386 54.567573 170.176431 0.669996 -3.395883 -170.514593 4.836468 5.607464 -2.875001 -71.891668 119.573950 77.438451 -105.386322 65.048638 -223.230881 -72.532374 63.032169 22.057795 -43.950966 -34.906249 -58.822450 25.531712 96.068516 18.565416 123.458524 102.968223 156.569738 -15.194307 155.321193 88.851855 10.102837 5.087778 48.929272 13.742618 3.748954 -128.120716 -14.416038 -29.638370 141.012998 19.954556 30.693005 -9.136445 -59.364405 -33.366912 11.893850
-414.527010 93.701209 -39.016115 37.592818 -15.690017 77.994490 -17.064978 28.259481 -6.612534 8.304762 38.122083 -14.859230 -27.102462 0.834736 42.157481 5.894358 -21.253821 -36.495589 1.971911 52.257224 166.809284 1.254495 -2.852509 -171.830948 3.979628 9.938917 -7.971913 -74.485747 114.629316 77.333656 -101.314798 65.018804 -228.798032 -87.590845 55.346389 37.735771 -35.850843 -23.449230 -53.213293 26.607516 92.989378 19.135210 127.951983 73.262549 157.849210 -44.623890 139.110490 112.312359 1.540868 0.826671 36.025153 13.409593 3.602270 -129.773239 -14.633359 -27.472605 137.390088 19.866676 29.511120 -9.448320 -59.725339 -32.905690 12.478324
-413.802484 94.766930 -39.150237 37.182952 -16.765145 76.019650 -16.656538 30.740981 -5.381170 9.502679 39.128299 -11.075257 -25.960425 0.308533 41.956162 5.902682 -21.918424 -37.237638 6.634870 50.125481 162.338625 4.240640 -4.691847 -171.307032 4.722512 12.081483 -15.939049 -77.271364 106.340643 77.857804 -96.084929 64.137293 -232.677552 -95.556635 50.507623 43.643642 -32.684665 -23.973006 -53.554738 32.840752 90.498893 4.809183 129.164464 49.469581 151.992555 -44.184330 119.331724 126.774772 -3.352002 -4.922446 22.436915 11.371964 4.282220 -130.777413 -15.695063 -24.959209 132.738006 20.133062 28.765615 -8.919944 -60.178748 -32.181826 13.524644
-412.839426 95.677165 -39.292402 37.942117 -16.942901 79.660838 -15.336674 35.315729 -6.053726 12.945073 40.247562 -9.019581 -24.888321 -0.479130 41.616824 6.131693 -22.364000 -38.505263 12.356320 39.220326 161.552607 5.007505 -8.546167 -168.734974 5.439274 18.614468 -24.623889 -82.251214 106.567009 74.188156 -89.130909 64.531600 -229.263824 -100.799358 46.771766 50.548686 -29.745470 -16.837905 -50.188472 40.254075 73.334143 -0.339855 129.118361 32.206097 151.795463 -26.481383 95.238922 92.221815 0.292652 -18.687312 16.569452 8.470422 4.606144 -132.436726 -17.585551 -21.174608 126.496811 20.288821 28.559425 -8.622511 -60.513939 -31.221891 14.372438
